# xmcd
#
# Track frame offsets: 
#        150
#        15030
#        30755
#        52683
#        69868
#        83897
#        102272
#        112644
#        129500
#        143106
#
# Disc length: 2288 seconds
#
# Revision: 0
# Processed by: cddbd v1.5.2PL0 Copyright (c) Steve Scherf et al.
# Submitted via: ExactAudioCopy v0.99pb3
#
DISCID=6008ee0a
DTITLE=Lisa Mills - Live at the Listening Room of Mobile Alabama
DYEAR=2018
DGENRE=Blues, Soul, Gospel
TTITLE0=Can´t Slow Down
TTITLE1=The Richest One
TTITLE2=Good Day For The Blues
TTITLE3=Long As I Can See The Light
TTITLE4=You´re Not The Only Game In Town
TTITLE5=Way Down South
TTITLE6=Make Me Want To Sing
TTITLE7=The Freddie King Song
TTITLE8=A Change Is Gonna Come
TTITLE9=Bring It On Home To Me
EXTD=
EXTT0=
EXTT1=
EXTT2=
EXTT3=
EXTT4=
EXTT5=
EXTT6=
EXTT7=
EXTT8=
EXTT9=
PLAYORDER=
